<svg xmlns="http://www.w3.org/2000/svg" xmlns:xlink="http://www.w3.org/1999/xlink" width="500" zoomAndPan="magnify" viewBox="0 0 375 374.999991" height="500" preserveAspectRatio="xMidYMid meet" version="1.0"><defs><g/><clipPath id="0aaf3ee772"><path d="M 187.5 0 C 83.945312 0 0 83.945312 0 187.5 C 0 291.054688 83.945312 375 187.5 375 C 291.054688 375 375 291.054688 375 187.5 C 375 83.945312 291.054688 0 187.5 0 Z M 187.5 0 " clip-rule="nonzero"/></clipPath></defs><g clip-path="url(#0aaf3ee772)"><rect x="-37.5" width="450" fill="#5e17eb" y="-37.499999" height="449.999989" fill-opacity="1"/></g><g fill="#ffffff" fill-opacity="1"><g transform="translate(40.605471, 237.749984)"><g><path d="M 51.359375 0 L 28.84375 -73.359375 L 28.265625 -73.359375 C 29.078125 -58.429688 29.484375 -48.472656 29.484375 -43.484375 L 29.484375 0 L 11.765625 0 L 11.765625 -93.5 L 38.765625 -93.5 L 60.890625 -22 L 61.265625 -22 L 84.75 -93.5 L 111.734375 -93.5 L 111.734375 0 L 93.25 0 L 93.25 -44.265625 C 93.25 -46.347656 93.28125 -48.753906 93.34375 -51.484375 C 93.40625 -54.210938 93.691406 -61.460938 94.203125 -73.234375 L 93.640625 -73.234375 L 69.515625 0 Z M 51.359375 0 "/></g></g></g><g fill="#ffffff" fill-opacity="1"><g transform="translate(164.092111, 237.749984)"><g><path d="M 65.625 0 L 11.765625 0 L 11.765625 -93.5 L 65.625 -93.5 L 65.625 -77.265625 L 31.59375 -77.265625 L 31.59375 -56.734375 L 63.25 -56.734375 L 63.25 -40.484375 L 31.59375 -40.484375 L 31.59375 -16.375 L 65.625 -16.375 Z M 65.625 0 "/></g></g></g><g fill="#ffffff" fill-opacity="1"><g transform="translate(237.44228, 237.749984)"><g><path d="M 89.34375 -47.640625 C 89.34375 -32.253906 84.960938 -20.46875 76.203125 -12.28125 C 67.441406 -4.09375 54.789062 0 38.25 0 L 11.765625 0 L 11.765625 -93.5 L 41.125 -93.5 C 56.382812 -93.5 68.234375 -89.46875 76.671875 -81.40625 C 85.117188 -73.351562 89.34375 -62.097656 89.34375 -47.640625 Z M 68.75 -47.140625 C 68.75 -67.222656 59.878906 -77.265625 42.140625 -77.265625 L 31.59375 -77.265625 L 31.59375 -16.375 L 40.09375 -16.375 C 59.195312 -16.375 68.75 -26.628906 68.75 -47.140625 Z M 68.75 -47.140625 "/></g></g></g></svg>